<?xml version="1.0" encoding="utf-8"?>
<!DOCTYPE svg PUBLIC "-//W3C//DTD SVG 1.0//EN" "http://www.w3.org/TR/2001/REC-SVG-20010904/DTD/svg10.dtd">
  <svg
    version="1.0"
    xmlns="http://www.w3.org/2000/svg"
    viewBox="0 0 512 360"
    width="512px"
    height="360px"
    preserveAspectRatio="xMidYMid meet"
  >
    <g fill="#00859b" >
      <path transform="matrix(0.443103909492, 1.36379802227, -2.402045965195, -0.566248834133, 442.757351953536, -122.596815752797)" d="M 169.748 108.124 A 104.166 104.166 0 1 1 169.748 147.876 A 73.332 73.332 0 1 0 169.748 108.124 Z" />
      <path transform="matrix(0.251579910517, 0.774320006371, -1.363810062408, -0.321500003338, 339.033537712414, -54.593020968139)" d="M 169.748 108.124 A 104.166 104.166 0 1 1 169.748 147.876 A 68.231 68.231 0 1 0 169.748 108.124 Z" />
    </g>
    <g fill="#0089ff">
      <path transform="matrix(0.107680000365, 0.331430017948, -0.583739995956, -0.137610003352, 260.013635750511, -2.207526112441)" d="M 169.748 108.124 A 104.166 104.166 0 1 1 169.748 147.876 A 26.457 26.457 0 1 0 169.748 108.124 Z" />
    </g>
  </svg>