<svg xmlns="http://www.w3.org/2000/svg" version="1.1" xmlns:xlink="http://www.w3.org/1999/xlink" xmlns:svgjs="http://svgjs.com/svgjs" width="1000" height="1000"><rect width="1000" height="1000" rx="200" ry="200" fill="#e9f3fd"></rect><g transform="matrix(1,0,0,1,0,0)"><svg xmlns="http://www.w3.org/2000/svg" version="1.1" xmlns:xlink="http://www.w3.org/1999/xlink" xmlns:svgjs="http://svgjs.com/svgjs" width="512px" height="307px"><svg version="1.0" xmlns="http://www.w3.org/2000/svg" width="512px" height="307px" viewBox="1.5 33.9289 512 306.2" preserveAspectRatio="xMidYMid meet">
 <g fill="#00859b">
  <path d="M 155.33 34.87 Q 50.72 28.53 15.85 63.4 Q -12.68 98.27 22.19 155.33 Q 114.12 275.79 310.66 329.68 Q 532.56 370.89 510.37 253.6 Q 494.52 193.37 405.76 133.14 Q 348.7 91.93 291.64 72.91 Q 364.55 101.44 408.93 155.33 Q 456.48 221.9 396.25 247.26 Q 307.49 275.79 152.16 193.37 Q 53.89 133.14 63.4 72.91 Q 76.08 34.87 155.33 34.87"></path>
  <path d="M 174.35 41.21 Q 98.27 34.87 85.59 66.57 Q 76.08 98.27 110.95 133.14 Q 193.37 209.22 304.32 221.9 Q 415.27 228.24 383.57 158.5 Q 361.38 114.12 275.79 69.74 Q 336.02 101.44 345.53 136.31 Q 351.87 168.01 307.49 174.35 Q 256.77 177.52 196.54 145.82 Q 136.31 114.12 126.8 72.91 Q 123.63 44.38 174.35 41.21 "></path>
 </g>
 <g fill="#0089ff">
  <path d="M 193.37 60.23 Q 164.84 63.4 174.35 85.59 Q 180.69 98.27 199.71 110.95 Q 218.73 123.63 252.015 131.555 Q 304.32 136.31 288.47 104.61 Q 272.62 82.42 231.41 66.57 Q 215.56 60.23 193.37 60.23"></path>
 </g>
</svg></svg></g></svg>