<?xml version="1.0" encoding="utf-8"?>
<!DOCTYPE svg PUBLIC "-//W3C//DTD SVG 1.0//EN" "http://www.w3.org/TR/2001/REC-SVG-20010904/DTD/svg10.dtd">
<svg version="1.0" xmlns="http://www.w3.org/2000/svg" width="157px" height="100px" viewBox="0 0 157 100" preserveAspectRatio="xMidYMid meet">
 <g fill="#00859b">
  <path d="M 37 12 Q 17 13 9 23.5 Q 4 30.5 11 41.5 Q 27 68.5 85 86.5 Q 138 98.5 150 77.5 Q 157 62.5 128 40.5 Q 110 27.5 94 23 Q 116 31 132 49 Q 146 69 123 75 Q 82 81 40 54 Q 19 41 18 26 Q 19 15 37 12"/>
  <path d="M 48.7 15.3 Q 37.1 15.9 32.5 21.9 Q 29.6 26 33.7 32.3 Q 42.9 47.8 76.3 58.2 Q 106.9 65.1 113.8 53 Q 117.8 44.4 101.1 31.7 Q 90.7 24.2 81.5 21.6 Q 94.2 26.2 103.4 36.6 Q 111.5 48.1 98.2 51.6 Q 74.6 55.1 50.4 39.5 Q 38.3 32 37.7 23.4 Q 38.3 17 48.7 15.3"/>
 </g>
 <g fill="#0096ff">
  <path d="M 65 22.8 Q 59.2 23.5 60 26.8 Q 60.5 30.4 68 32.5 Q 76 33.5 77 29.8 Q 77.5 27 72 24 Q 68.5 22.5 65 22.8"/>
 </g>
</svg>
